<svg width="316" height="120" viewBox="0 0 316 120" fill="none" xmlns="http://www.w3.org/2000/svg">
<g clip-path="url(#clip0_60_500)">
<mask id="mask0_60_500" style="mask-type:luminance" maskUnits="userSpaceOnUse" x="-52" y="-36" width="377" height="242">
<path d="M-49.6516 -35.6697L324.708 -32.8263L322.43 205.934L-51.9294 203.091L-49.6516 -35.6697Z" fill="white" style="fill:white;fill-opacity:1;"/>
</mask>
<g mask="url(#mask0_60_500)">
<path fill-rule="evenodd" clip-rule="evenodd" d="M63.6695 68.517C63.6345 68.5139 63.5996 68.5122 63.5652 68.511C63.5078 68.5086 63.4489 68.5058 63.3916 68.4958C63.3587 68.4889 63.3268 68.4872 63.2949 68.4851C63.2719 68.4839 63.2485 68.4823 63.226 68.4798C63.1861 68.4747 63.1458 68.4677 63.1064 68.4602C63.0785 68.4548 63.0516 68.4503 63.0237 68.4462C62.9873 68.4407 62.9504 68.4361 62.9135 68.4315C62.8597 68.4254 62.8068 68.4188 62.7535 68.4098C62.6762 68.3963 62.6 68.379 62.5248 68.3617L62.4361 68.342C62.3415 68.3202 62.2469 68.299 62.1522 68.2777C62.0272 68.2495 61.9017 68.2142 61.7803 68.1794L61.6409 68.1406C61.4517 68.0881 61.2636 68.0212 61.0885 67.9564C60.9179 67.8949 60.7692 67.8341 60.6325 67.7714C60.5799 67.7471 60.5267 67.7229 60.474 67.6981C60.3363 67.6359 60.1947 67.5713 60.0591 67.4996L59.9856 67.4604C59.8197 67.3722 59.6488 67.2811 59.4906 67.1773C59.4276 67.1367 59.3646 67.0975 59.301 67.0579C59.1844 66.9854 59.0643 66.9104 58.9513 66.8298C58.7465 66.685 58.5478 66.5278 58.3809 66.3928C58.2417 66.2805 58.1135 66.1635 58.0067 66.0633C57.7974 65.8669 57.6333 65.6975 57.4911 65.5298C57.4521 65.4837 57.4121 65.438 57.3726 65.3933C57.3168 65.3293 57.2615 65.2664 57.2082 65.202C57.0819 65.0491 56.9689 64.9107 56.8639 64.7652C56.8043 64.6827 56.7483 64.5944 56.6942 64.5089C56.6519 64.4432 56.6101 64.377 56.5658 64.3122C56.454 64.1494 56.3593 63.9744 56.2676 63.8051L56.2323 63.7409C56.1072 63.5131 56.0021 63.2773 55.883 62.9937C55.8425 62.8974 55.8065 62.7992 55.77 62.7015L55.7403 62.6211C55.6658 62.4195 55.6064 62.2103 55.549 62.0079L55.5267 61.9284C55.4934 61.8121 55.4651 61.6911 55.4394 61.5581C55.4194 61.4558 55.404 61.3525 55.388 61.2497L55.3734 61.1546L55.3569 61.0566C55.3393 60.9581 55.3223 60.8591 55.3093 60.7596C55.2924 60.6425 55.2831 60.5245 55.2765 60.4256C55.27 60.3209 55.2656 60.2082 55.2625 60.0597C55.2612 59.9364 55.2624 59.8113 55.2661 59.6877C55.2718 59.5082 55.279 59.3287 55.2857 59.1487L55.2897 59.0408C55.2884 59.0264 55.2874 59.0207 55.2905 59.0164C55.3108 58.9726 55.3113 58.9263 55.3112 58.8814C55.3111 58.8427 55.3115 58.8026 55.3248 58.7636C55.3366 58.7283 55.338 58.6887 55.3399 58.65C55.3406 58.6242 55.3419 58.5985 55.3461 58.5732C55.3546 58.5236 55.3645 58.4735 55.375 58.4244C55.3839 58.3815 55.3923 58.3391 55.3997 58.2961C55.406 58.2628 55.4108 58.2289 55.4151 58.195C55.4215 58.1478 55.428 58.1006 55.4384 58.0538C55.4499 58.0047 55.4643 57.9552 55.4788 57.9056C55.4953 57.8465 55.5139 57.7855 55.5254 57.725C55.5595 57.5514 55.615 57.3823 55.6649 57.2322C55.741 57.0012 55.8185 56.7754 55.9185 56.5541C55.9429 56.4994 55.9664 56.4437 55.9899 56.3885C56.0308 56.2919 56.0727 56.1919 56.123 56.0968C56.2491 55.8542 56.3827 55.6121 56.5202 55.3787C56.6115 55.2242 56.7179 55.0631 56.8368 54.9002L56.854 54.8755C56.987 54.6921 57.1246 54.5026 57.2805 54.331C57.3365 54.2703 57.3905 54.2071 57.4445 54.144C57.5328 54.042 57.6242 53.9358 57.7225 53.8386C57.8918 53.6723 58.0715 53.5098 58.2457 53.3526C58.3132 53.2915 58.3807 53.2314 58.4472 53.1698C58.4895 53.1319 58.5347 53.095 58.5825 53.06C58.7107 52.9641 58.8399 52.8691 58.9711 52.7755C59.0781 52.7004 59.1751 52.6352 59.2665 52.5767C59.3956 52.4931 59.5146 52.42 59.629 52.3545L59.758 52.28C59.9111 52.1924 60.0697 52.1014 60.2312 52.0234C60.4935 51.8945 60.7687 51.7763 61.0487 51.6719C61.3273 51.568 61.5746 51.4863 61.8044 51.4212C61.9605 51.3765 62.1277 51.3334 62.3018 51.2922C62.3628 51.2779 62.4248 51.2673 62.4868 51.2564C62.5398 51.2477 62.5928 51.2381 62.6454 51.227C62.6779 51.2196 62.7114 51.2151 62.7438 51.2106C62.7793 51.206 62.8138 51.2011 62.8468 51.1932C62.9409 51.1691 63.0384 51.1569 63.1328 51.1452C63.1968 51.1381 63.2603 51.1304 63.3238 51.1185C63.4273 51.1002 63.5347 51.0933 63.6296 51.0869C63.7215 51.0814 63.8144 51.0773 63.9072 51.0747L63.9687 51.0718C63.9807 51.0714 63.9926 51.0715 64.0046 51.0716L64.0226 51.0717L64.041 51.0719L64.072 51.0726C64.0865 51.0727 64.1009 51.0728 64.1159 51.0725C64.1214 51.0725 64.1259 51.0682 64.1305 51.063C64.2598 51.0607 64.3866 51.0597 64.5134 51.0607C64.6172 51.0615 64.721 51.0637 64.8258 51.0659C64.8562 51.0723 64.8881 51.0783 64.922 51.0791L64.9415 51.0797C64.959 51.0798 64.9774 51.0795 64.9954 51.0791L65.0079 51.0792L65.0493 51.0791C65.0728 51.0792 65.0962 51.0799 65.1202 51.0815C65.1721 51.0862 65.2234 51.0933 65.2753 51.1004C65.3166 51.1059 65.3585 51.111 65.3999 51.1152C65.4463 51.1208 65.4927 51.1235 65.5396 51.1272C65.5715 51.1294 65.6034 51.1315 65.6348 51.1341C65.6912 51.1403 65.7421 51.1455 65.7904 51.1535C65.8288 51.1609 65.8671 51.1684 65.905 51.1763C65.9523 51.1857 65.9987 51.1947 66.046 51.2032C66.0824 51.2096 66.1193 51.2147 66.1552 51.2193C66.2005 51.2249 66.2464 51.2309 66.2913 51.2404C66.3575 51.2547 66.4237 51.271 66.4895 51.2882C66.5378 51.3005 66.5866 51.3128 66.6354 51.3246C66.7968 51.3607 66.972 51.4084 67.1851 51.4745C67.3891 51.5371 67.5892 51.6003 67.7791 51.68C67.8418 51.7058 67.9059 51.7302 67.9696 51.7541C68.0636 51.7887 68.1601 51.8252 68.2505 51.8684C68.2997 51.8927 68.3489 51.9155 68.3986 51.9388C68.4836 51.9786 68.5691 52.0184 68.652 52.0625L68.7529 52.1158C68.886 52.1861 69.0235 52.2587 69.1551 52.3352C69.3641 52.4566 69.5695 52.5938 69.7505 52.7151C69.9489 52.8469 70.1511 52.9999 70.4067 53.2095C70.5716 53.3445 70.73 53.4933 70.8774 53.6334C70.9748 53.7253 71.0687 53.8235 71.1602 53.9182L71.2477 54.0087C71.2976 54.0597 71.35 54.1145 71.3989 54.1727C71.5267 54.3255 71.6303 54.4528 71.725 54.5739C71.7911 54.6585 71.8596 54.7497 71.9394 54.8625C72.1123 55.1045 72.2446 55.3071 72.3556 55.5004C72.4779 55.7129 72.5676 55.8788 72.648 56.0384C72.7278 56.1971 72.8194 56.3855 72.8934 56.5785C72.9119 56.6273 72.9319 56.6752 72.9519 56.7236C72.9778 56.7869 73.0042 56.8496 73.027 56.9138C73.0888 57.0838 73.1364 57.225 73.1775 57.3586C73.2003 57.4299 73.2191 57.5036 73.2368 57.5758C73.245 57.6103 73.2536 57.6452 73.2628 57.6801C73.27 57.7074 73.2777 57.7352 73.2855 57.7625C73.3009 57.8165 73.3169 57.8716 73.3288 57.9266C73.3437 57.9945 73.355 58.0629 73.3663 58.1317L73.3791 58.2044L73.3933 58.2848L73.4146 58.4048C73.4203 58.4368 73.4265 58.4684 73.4332 58.5C73.4432 58.5502 73.4532 58.5999 73.4607 58.6506C73.4649 58.6793 73.4656 58.7094 73.4673 58.7385C73.469 58.7758 73.4706 58.814 73.4778 58.8513C73.5015 58.9771 73.5107 59.1147 73.5076 59.2837C73.5064 59.3028 73.5052 59.3224 73.508 59.342C73.508 59.3448 73.5125 59.3477 73.5174 59.3507C73.5211 59.6945 73.5179 60.034 73.5101 60.3769C73.502 60.3935 73.4979 60.4069 73.4967 60.4193C73.4928 60.4632 73.4924 60.5071 73.492 60.551C73.4909 60.6141 73.4898 60.6795 73.4797 60.7434C73.4701 60.8011 73.4631 60.8593 73.456 60.917C73.4463 60.9948 73.4371 61.075 73.4214 61.1527C73.4104 61.2066 73.4024 61.261 73.3948 61.3153C73.3863 61.3774 73.3772 61.4418 73.3631 61.5042C73.3448 61.5848 73.3231 61.6644 73.3019 61.7444C73.2802 61.8245 73.2584 61.9046 73.2402 61.9851C73.1943 62.1873 73.125 62.3868 73.0578 62.5797L73.0435 62.6197C73.005 62.7307 72.96 62.8416 72.9165 62.9492L72.8669 63.0721C72.7974 63.2478 72.7168 63.4215 72.6222 63.6036C72.5266 63.7911 72.424 63.9727 72.2997 64.1876C72.2251 64.316 72.145 64.4405 72.0631 64.5564C71.854 64.8566 71.6695 65.0983 71.4812 65.318L71.46 65.3427C71.3414 65.4817 71.2187 65.6259 71.0847 65.7543L70.9784 65.8567C70.7638 66.0637 70.5421 66.2779 70.3002 66.4657L70.2147 66.5324C70.091 66.6303 69.9622 66.7315 69.83 66.8231L69.721 66.8987C69.622 66.9682 69.5225 67.0371 69.422 67.1027C69.3326 67.1613 69.2322 67.2207 69.1043 67.2909C68.9472 67.379 68.8022 67.4562 68.6607 67.5277C68.3317 67.6952 68.0524 67.8201 67.7834 67.9189C67.7464 67.9329 67.7093 67.9469 67.6722 67.9615C67.594 67.9919 67.5134 68.0238 67.4318 68.047C67.3557 68.0689 67.2801 68.0922 67.2045 68.1155C67.0733 68.1561 66.9381 68.198 66.8025 68.2318C66.5979 68.2833 66.3958 68.329 66.2062 68.3706L66.1782 68.3766C66.1082 68.3913 66.0386 68.4061 65.9666 68.418C65.8556 68.4357 65.7437 68.4521 65.6337 68.4651C65.6042 68.4687 65.5743 68.4708 65.5448 68.4721C65.5108 68.4737 65.4764 68.4758 65.4419 68.4813C65.3454 68.4978 65.2509 68.5123 65.1526 68.5116C65.1396 68.5115 65.1356 68.5105 65.1306 68.51C65.1256 68.5099 65.1206 68.5094 65.1162 68.5094C65.1107 68.5094 65.1057 68.5098 65.1027 68.5117C65.0696 68.5267 65.0361 68.5279 65.0082 68.5277L64.9762 68.527C64.9607 68.5264 64.9488 68.5258 64.9363 68.5257C64.9273 68.5256 64.9183 68.526 64.9093 68.5264C64.8873 68.5282 64.8659 68.5299 64.8439 68.5326C64.8039 68.5366 64.7639 68.5411 64.724 68.5408C64.6846 68.54 64.6526 68.5393 64.6202 68.5391C64.5613 68.5386 64.5024 68.5386 64.4435 68.5391L64.3975 68.5393L64.3242 68.5392C64.2757 68.5393 64.2273 68.5394 64.1784 68.539C64.0386 68.538 63.855 68.5342 63.6695 68.517Z" fill="#D87C7C" style="fill:#D87C7C;fill:color(display-p3 0.8471 0.4863 0.4863);fill-opacity:1;"/>
</g>
<mask id="mask1_60_500" style="mask-type:luminance" maskUnits="userSpaceOnUse" x="-51" y="-38" width="377" height="243">
<path d="M-48.5771 -37.3076L325.783 -34.4643L323.505 204.296L-50.855 201.453L-48.5771 -37.3076Z" fill="white" style="fill:white;fill-opacity:1;"/>
</mask>
<g mask="url(#mask1_60_500)">
<path fill-rule="evenodd" clip-rule="evenodd" d="M42.0321 75.6794C42.0041 75.6338 41.976 75.5887 41.9485 75.5431C40.6498 73.431 39.3456 71.3218 37.9802 69.2493C37.9069 69.1275 37.8393 68.9961 37.7365 68.8931C37.7206 68.8777 37.7043 68.8619 37.687 68.8474C37.456 68.2568 37.223 67.6672 36.9865 67.0785C36.8793 66.8112 36.768 66.5453 36.6572 66.2794C36.5279 65.968 36.4056 65.65 36.2312 65.3593C36.1211 65.175 35.9652 65.033 35.7508 64.9645C35.5397 64.8975 35.305 64.9148 35.1064 65.0117C35.0878 65.0211 35.0697 65.031 35.0512 65.0418C34.9924 64.8742 34.9331 64.7071 34.8733 64.5395C35.1165 64.4224 35.3701 64.3145 35.6281 64.2191C35.9066 64.1151 36.154 64.033 36.3837 63.9679C36.5394 63.9237 36.7071 63.8801 36.8812 63.8394C36.9427 63.8245 37.0042 63.814 37.0662 63.8035C37.1192 63.7944 37.1722 63.7852 37.2247 63.7737C37.2577 63.7663 37.2907 63.7622 37.3237 63.7577C37.3587 63.7527 37.3932 63.7477 37.4262 63.7399C37.5203 63.7158 37.6177 63.7041 37.7122 63.6924C37.7762 63.6847 37.8401 63.6771 37.9036 63.6652C38.0072 63.6469 38.114 63.64 38.2089 63.6336C38.3009 63.6281 38.3937 63.6245 38.4866 63.6214L38.548 63.619C38.56 63.6186 38.572 63.6187 38.5845 63.6188L38.6019 63.6189L38.6204 63.619L38.6519 63.6198C38.6658 63.6199 38.6808 63.62 38.6953 63.6191C38.7008 63.6192 38.7053 63.6149 38.7104 63.6097C38.8392 63.6073 38.966 63.6069 39.0927 63.6078C39.1966 63.6086 39.3004 63.6104 39.4052 63.6131C39.4356 63.6195 39.4675 63.625 39.5014 63.6262L39.5214 63.6268C39.5383 63.627 39.5568 63.6266 39.5748 63.6258L39.5873 63.6259L39.6287 63.6258C39.6522 63.6259 39.6761 63.6266 39.6996 63.6287C39.7519 63.6334 39.8028 63.64 39.8546 63.647C39.896 63.6526 39.9379 63.6582 39.9793 63.6623C40.0256 63.6674 40.072 63.6707 40.1189 63.6739C40.1509 63.6765 40.1823 63.6782 40.2147 63.6808C40.2711 63.687 40.3214 63.6926 40.3703 63.7006C40.4086 63.7076 40.4465 63.7151 40.4844 63.723C40.5317 63.7324 40.5785 63.7418 40.6259 63.7498C40.6623 63.7568 40.6986 63.7614 40.7345 63.766C40.7804 63.772 40.8253 63.7781 40.8706 63.787C40.9369 63.8014 41.0031 63.8181 41.0688 63.8349C41.1176 63.8477 41.1659 63.86 41.2148 63.8713C41.3766 63.9074 41.5514 63.9555 41.7649 64.0212C41.969 64.0838 42.1686 64.147 42.359 64.2267C42.4211 64.253 42.4853 64.2769 42.549 64.3007C42.643 64.3354 42.7395 64.3719 42.8299 64.4156C42.8791 64.4394 42.9288 64.4627 42.978 64.486C43.0635 64.5253 43.1485 64.5651 43.2314 64.6092L43.3327 64.6625C43.4653 64.7327 43.6024 64.8054 43.7345 64.8819C43.9435 65.0033 44.1493 65.1405 44.3299 65.2617C44.5283 65.3941 44.73 65.5465 44.9861 65.7562C45.151 65.8917 45.3093 66.04 45.4567 66.18C45.5542 66.272 45.6481 66.3701 45.7396 66.4649L45.8271 66.5554C45.877 66.6064 45.9294 66.6617 45.9782 66.7193C46.1066 66.8722 46.2097 67 46.3044 67.1211C46.371 67.2051 46.439 67.2964 46.5188 67.4092C46.6917 67.6512 46.824 67.8542 46.935 68.0471C47.0572 68.26 47.147 68.4255 47.2274 68.5851C47.3077 68.7438 47.3988 68.9321 47.4728 69.1252C47.4918 69.174 47.5118 69.2219 47.5313 69.2703C47.5572 69.334 47.5835 69.3968 47.6064 69.4609C47.6681 69.6309 47.7157 69.7717 47.7569 69.9057C47.7802 69.9766 47.7984 70.0508 47.8157 70.1225C47.8249 70.157 47.8335 70.1919 47.8422 70.2273C47.8494 70.2546 47.8571 70.2819 47.8653 70.3091C47.8808 70.3637 47.8962 70.4183 47.9087 70.4733C47.923 70.5412 47.9344 70.61 47.9457 70.6784L47.9585 70.7516L47.9727 70.8319L47.994 70.9519C47.9997 70.9835 48.0059 71.0151 48.0126 71.0466C48.0226 71.0969 48.0331 71.1471 48.0406 71.1973C48.0438 71.2264 48.045 71.2561 48.0467 71.2857C48.0484 71.3225 48.05 71.3612 48.0571 71.3975C48.0809 71.5238 48.0905 71.6619 48.0869 71.8309C48.0858 71.85 48.0846 71.8695 48.0874 71.8887C48.0874 71.8915 48.0923 71.8949 48.0973 71.8978C48.1005 72.2412 48.0973 72.5807 48.0895 72.924C48.0813 72.9402 48.0772 72.9535 48.0761 72.9659C48.0722 73.0099 48.0718 73.0538 48.0714 73.0977C48.0703 73.1607 48.0691 73.2262 48.059 73.2906C48.05 73.3478 48.0425 73.406 48.0354 73.4642C48.0262 73.5415 48.0164 73.6217 48.0007 73.6999C47.9897 73.7533 47.9822 73.8076 47.9742 73.862C47.9656 73.924 47.9565 73.9884 47.943 74.0514C47.9242 74.1319 47.9025 74.2115 47.8808 74.2911C47.859 74.3712 47.8373 74.4512 47.8201 74.5318C47.7737 74.7344 47.7044 74.934 47.6372 75.1264L47.6228 75.1664C47.5843 75.2774 47.5398 75.3888 47.4959 75.4964L47.4468 75.6188C47.3767 75.7945 47.2967 75.9682 47.2021 76.1508C47.106 76.3382 47.0034 76.5194 46.8786 76.7343C46.8045 76.8627 46.7249 76.9872 46.6424 77.1036C46.4339 77.4038 46.2489 77.6455 46.0606 77.8647L46.0394 77.8894C45.9208 78.0284 45.7986 78.1726 45.6641 78.3015L45.5578 78.4034C45.3431 78.6104 45.1215 78.8246 44.8796 79.0128L44.7941 79.0795C44.691 79.1609 44.5838 79.2451 44.4742 79.324C43.5954 78.1521 42.8095 76.9164 42.0321 75.6794Z" fill="#D87C7C" style="fill:#D87C7C;fill:color(display-p3 0.8471 0.4863 0.4863);fill-opacity:1;"/>
</g>
<mask id="mask2_60_500" style="mask-type:luminance" maskUnits="userSpaceOnUse" x="-51" y="-38" width="377" height="243">
<path d="M-48.5771 -37.3076L325.783 -34.4643L323.505 204.296L-50.855 201.453L-48.5771 -37.3076Z" fill="white" style="fill:white;fill-opacity:1;"/>
</mask>
<g mask="url(#mask2_60_500)">
<path fill-rule="evenodd" clip-rule="evenodd" d="M34.0624 48.6071C34.0624 48.6047 34.0629 48.6028 34.0635 48.6L34.0635 48.6014C34.1001 48.4274 34.1387 48.2534 34.1783 48.0798C34.1371 48.2596 34.0974 48.4393 34.0603 48.62L34.0608 48.6138C34.0613 48.6133 34.0614 48.6124 34.0614 48.6119C34.0619 48.6105 34.0619 48.6086 34.0624 48.6071ZM35.3882 66.0313C35.3487 65.9321 35.3107 65.833 35.2753 65.7334L35.2772 65.7382L35.2787 65.7401C35.3132 65.8382 35.3502 65.935 35.3882 66.0313ZM90.4604 67.1969C90.5265 67.0737 90.5931 66.9472 90.6597 66.8164L90.649 66.8388L90.648 66.8416C90.5864 66.9605 90.5239 67.0795 90.4604 67.1969ZM47.4827 63.9111C47.4847 63.9111 47.4872 63.9106 47.4892 63.9102C47.4882 63.904 47.4878 63.8978 47.4874 63.8915C47.486 63.8782 47.4846 63.8643 47.4833 63.8509L47.4827 63.9111ZM76.3626 72.3048C75.583 71.0678 74.2177 69.5988 73.8795 68.5464C73.5736 67.4573 73.7133 66.9063 73.9871 66.2493C75.2775 62.6905 77.8871 56.6296 74.6681 54.5051C73.7938 53.9763 72.5591 53.9678 71.6471 53.9179C71.1866 53.8934 70.7256 53.8627 70.2673 53.8181C69.8125 53.7736 69.3588 53.7162 68.9061 53.6502C68.4515 53.5842 67.9995 53.5053 67.5481 53.4183C67.0927 53.3308 66.6383 53.2409 66.1891 53.1286C65.724 53.0114 65.263 52.8818 64.802 52.7518C64.3554 52.6257 63.9063 52.5024 63.468 52.3505C63.0495 52.2055 62.6388 52.0439 62.2321 51.8712C62.1252 51.8227 62.0178 51.7765 61.9099 51.7312C61.7359 51.6593 61.5594 51.5915 61.3884 51.5133C61.2795 51.4648 61.1717 51.4138 61.0654 51.359C61.0296 51.3411 60.9934 51.3222 60.9576 51.3033C60.9601 51.3028 60.9616 51.3024 60.9641 51.3019C60.9387 51.2903 60.9134 51.2786 60.8886 51.2665C60.8434 51.2423 60.7987 51.218 60.754 51.1938C60.6492 51.1371 60.5449 51.0781 60.4396 51.0214C60.3408 50.9681 60.2399 50.9187 60.1411 50.8663C59.9921 50.7883 59.8441 50.7098 59.6946 50.6347C59.563 50.5592 59.4319 50.4832 59.2998 50.4096C59.2626 50.3893 59.2254 50.3689 59.1886 50.3481C59.133 50.3152 59.0779 50.2819 59.0223 50.2485L59.0225 50.2351C58.8225 50.1085 58.6246 49.9785 58.4271 49.8485C58.062 49.607 57.6959 49.3659 57.3394 49.1139C56.977 48.8585 56.6261 48.588 56.2869 48.3046C56.2255 48.2525 56.1636 48.201 56.1022 48.1489C55.9881 48.1825 55.8744 48.2169 55.7603 48.2524C55.5985 48.3032 55.4397 48.3621 55.2804 48.4202C55.2905 48.4169 55.3 48.4131 55.31 48.4099C55.1782 48.4628 55.0459 48.5158 54.918 48.5764L54.8488 48.6093C54.7484 48.6711 54.648 48.7324 54.5476 48.7933C54.3749 48.8985 54.2017 49.0017 54.0299 49.1084C53.9977 49.1339 53.965 49.159 53.9328 49.1845C53.5214 49.509 53.1055 49.8287 52.6931 50.1522C52.2943 50.4653 51.8895 50.7788 51.4443 51.0309C51.3288 51.0964 51.2114 51.1615 51.0876 51.2121C50.9749 51.2585 50.8572 51.2963 50.7381 51.325C50.6285 51.3519 50.516 51.3759 50.4032 51.375C50.3473 51.3746 50.2914 51.3684 50.2362 51.3532C50.1635 51.3331 50.0874 51.2986 50.026 51.2518C49.9782 51.2342 49.931 51.2157 49.8843 51.1958C49.8077 51.1637 49.7342 51.1244 49.6683 51.0762C49.5989 51.0236 49.5321 50.9534 49.52 50.8659C49.5083 50.7837 49.5425 50.7018 49.6044 50.6507C49.6235 50.5907 49.6624 50.5394 49.7063 50.4877C49.7533 50.4326 49.8047 50.3814 49.8561 50.3302C49.9765 50.2118 50.1034 50.0996 50.2332 49.9907C50.4481 49.8118 50.6762 49.6488 50.9059 49.4882C51.1365 49.2774 51.383 49.0816 51.6319 48.8943C51.9768 48.6348 52.3291 48.3829 52.6898 48.1435C52.6893 48.144 52.6893 48.1445 52.6888 48.1445C52.7009 48.1365 52.7134 48.1284 52.7265 48.1195C52.724 48.1214 52.7215 48.1228 52.719 48.1242C52.9375 47.9792 53.1585 47.8377 53.3844 47.7023C53.6013 47.5726 53.8251 47.4545 54.0522 47.3435C54.287 47.2287 54.5275 47.1255 54.773 47.0328C54.7956 47.0239 54.8176 47.0155 54.8407 47.0075C54.6399 46.8112 54.4441 46.6096 54.2529 46.4047C54.1788 46.3263 54.1066 46.2465 54.0345 46.1667C53.7447 45.8846 53.4685 45.5902 53.1988 45.2902C52.8535 44.9065 52.5223 44.5095 52.2022 44.1064C51.8693 43.6875 51.5544 43.2562 51.2375 42.8259C51.2222 42.8048 51.2075 42.7841 51.1922 42.7635L51.1932 42.7659C51.1927 42.7644 51.1922 42.7635 51.1912 42.7625C51.1843 42.7529 51.1774 42.7438 51.1705 42.7347C51.1749 42.7404 51.1799 42.7472 51.1843 42.7529C50.9393 42.4278 50.6863 42.1092 50.4166 41.802C50.1367 41.4833 49.8541 41.1659 49.5596 40.859C49.564 40.8638 49.568 40.8677 49.5724 40.872C49.565 40.8643 49.5576 40.8566 49.5497 40.8494C49.5492 40.8484 49.5487 40.848 49.5482 40.847C49.5477 40.8465 49.5467 40.846 49.5457 40.8451C49.3005 40.5963 49.0467 40.3546 48.7768 40.131C48.4855 39.9005 48.176 39.6914 47.8594 39.4946C47.5799 39.3277 47.2939 39.1728 46.9972 39.0349C46.765 38.9352 46.5257 38.8551 46.2828 38.7806C46.2917 38.7841 46.3007 38.7865 46.3092 38.7894C46.1255 38.736 45.9392 38.693 45.7503 38.6596C45.5928 38.6355 45.4342 38.6171 45.2746 38.6092C44.9602 38.6015 44.647 38.6202 44.3343 38.6455C44.3483 38.6442 44.3618 38.6428 44.3757 38.6415C44.1429 38.6627 43.911 38.6939 43.682 38.7361C43.6337 38.8833 43.5774 39.0285 43.5176 39.1713C43.4343 39.3679 43.3426 39.5625 43.2375 39.7494C43.1329 39.9344 43.0109 40.1111 42.8904 40.2874C42.7821 40.4451 42.6718 40.6014 42.554 40.7533C42.3049 41.0776 42.0353 41.3878 41.7614 41.6933C41.4238 42.0694 41.0704 42.4326 40.7334 42.8092C40.7394 42.8016 40.7465 42.794 40.7531 42.7869C40.4796 43.0947 40.21 43.4055 39.9519 43.7249C39.6898 44.0472 39.4445 44.381 39.2106 44.7231C38.9823 45.059 38.7648 45.4022 38.5514 45.7468C38.3501 46.0714 38.1558 46.3999 37.9789 46.7367C37.8399 47.014 37.7055 47.2929 37.5875 47.579C37.4648 47.8765 37.3447 48.175 37.2369 48.4779C37.239 48.4737 37.2405 48.4694 37.2421 48.4651C37.1778 48.6575 37.1166 48.851 37.0613 49.0463C37.007 49.2393 36.9598 49.4343 36.9184 49.6307C36.868 49.8944 36.8205 50.1601 36.7831 50.4267C36.744 50.7058 36.7188 50.986 36.6977 51.2666C36.6825 51.4981 36.6723 51.7292 36.6671 51.9603C36.6615 52.1837 36.6593 52.4081 36.6702 52.6312C36.6894 52.864 36.7217 53.0944 36.7569 53.3244C36.7931 53.562 36.8298 53.7996 36.8679 54.0372C36.9457 54.5182 37.0375 54.997 37.1397 55.4739L37.1336 55.4428C37.2057 55.7767 37.2844 56.1096 37.3756 56.4389C37.4625 56.7533 37.5634 57.0645 37.6742 57.3724L37.6742 57.3734C37.6747 57.3743 37.6747 57.3743 37.6747 57.3748C37.6752 57.3753 37.6752 57.3758 37.6752 57.3762C37.6757 57.3767 37.6757 57.3772 37.6757 57.3772C37.6766 57.3815 37.6786 57.3853 37.6796 57.3887L37.6805 57.3906L37.682 57.394L37.682 57.3949C37.9443 58.1013 38.2237 58.8021 38.5085 59.5C38.5869 59.3908 38.6713 59.2859 38.7576 59.1834C38.898 59.0178 39.0502 58.8628 39.2094 58.7145C39.3962 58.5402 39.5896 58.3707 39.7814 58.2017C39.8679 58.1255 39.956 58.0516 40.0446 57.9773C40.3937 57.6371 40.7681 57.3238 41.1563 57.0249C41.5722 56.7038 42.0114 56.4034 42.4765 56.1515C42.7144 56.0224 42.9636 55.9011 43.2215 55.8133C43.2566 55.8011 43.2917 55.7899 43.3272 55.7788C43.409 55.7307 43.4918 55.6831 43.5756 55.6374C43.6835 55.578 43.7919 55.5196 43.9013 55.4632C43.9861 55.4189 44.0739 55.367 44.169 55.3463C44.1765 55.3449 44.1835 55.3435 44.1905 55.3426C44.2598 55.2959 44.337 55.2645 44.4235 55.2985C44.4399 55.3049 44.4548 55.3131 44.4687 55.3223C44.4951 55.3258 44.521 55.3337 44.5438 55.3453C44.6104 55.3792 44.6458 55.4368 44.6711 55.5019C44.7131 55.6069 44.7069 55.7314 44.6949 55.8402C44.6861 55.9204 44.6669 56.0024 44.6402 56.081C44.6419 56.1106 44.6406 56.1407 44.6373 56.1693C44.6296 56.2471 44.5965 56.319 44.5603 56.3889C44.5222 56.4621 44.4732 56.5277 44.4177 56.5874C44.3363 56.6904 44.2346 56.7809 44.136 56.8651C43.8501 57.1094 43.5341 57.319 43.2123 57.5186C42.8131 57.8145 42.3952 58.0869 41.9753 58.3549C41.7995 58.4668 41.6213 58.5767 41.4445 58.6866C41.2855 58.8182 41.1295 58.9531 40.9754 59.0899C40.8002 59.2467 40.6299 59.4068 40.4671 59.5746C40.3154 59.732 40.1695 59.8947 40.0267 60.0593C39.9197 60.187 39.8191 60.3185 39.7259 60.4553C39.5871 60.6687 39.4572 60.8874 39.3263 61.1056C39.304 61.1431 39.2817 61.1807 39.2589 61.2183C39.4052 61.5279 39.5505 61.8375 39.6963 62.1471C39.9155 62.6096 40.1407 63.0693 40.366 63.5294C40.3809 63.5338 40.3959 63.5378 40.4108 63.5417C40.4186 63.559 40.4254 63.5767 40.4328 63.5935C40.4786 63.7036 40.525 63.8134 40.5729 63.9221C40.6227 64.0376 40.674 64.1526 40.7268 64.2671C40.7253 64.2666 40.7244 64.2662 40.7234 64.2657C40.7518 64.3246 40.7801 64.3841 40.8085 64.4435C40.8173 64.4622 40.8266 64.4804 40.8354 64.4996C40.8369 64.5001 40.8389 64.5001 40.8409 64.5006C40.8468 64.5126 40.8532 64.525 40.8596 64.5365C40.8581 64.5346 40.8576 64.5327 40.8561 64.5312C40.8831 64.5826 40.9095 64.6334 40.936 64.6847L40.9287 64.6689C40.9767 64.7623 41.0293 64.8525 41.0833 64.9427C41.0708 64.9431 41.0578 64.944 41.0448 64.9443C41.1412 65.1523 41.2371 65.3603 41.3319 65.5692C41.4932 65.9253 41.6461 66.2846 41.7873 66.6486C41.9218 66.9935 42.0308 67.3463 42.1317 67.7009C42.238 68.0737 42.3337 68.4494 42.424 68.8259C42.5143 69.2005 42.5955 69.5769 42.6883 69.9506C42.7864 70.341 42.9051 70.7254 43.0432 71.1047C43.142 71.3691 43.2469 71.6306 43.3622 71.8884C43.482 72.1544 43.6148 72.4147 43.7506 72.6731C43.8776 72.9076 44.0067 73.1421 44.1483 73.3691C44.2967 73.6085 44.4578 73.8399 44.6223 74.0689C44.8194 74.3369 45.0201 74.6001 45.2328 74.8572C45.4415 75.1086 45.6619 75.3495 45.8862 75.5881C45.8872 75.5886 45.8872 75.5891 45.8877 75.59C45.8882 75.5905 45.8892 75.591 45.8897 75.591C45.8897 75.5915 45.8897 75.5919 45.8902 75.5924L45.8912 75.5934C45.8936 75.5958 45.8951 75.5977 45.8971 75.5992C45.8966 75.5992 45.8956 75.5982 45.8951 75.5972C45.8956 75.5982 45.8966 75.5992 45.8976 75.5996C45.8996 75.6016 45.9005 75.6035 45.902 75.6045C45.9035 75.6064 45.905 75.6083 45.907 75.6097L45.904 75.6073C46.1472 75.8594 46.3934 76.1087 46.6477 76.3508C46.8965 76.5886 47.1594 76.8131 47.4254 77.0329C47.7335 77.2822 48.0497 77.52 48.3745 77.7488C48.6814 77.9661 48.9883 78.1823 49.2948 78.4005C49.6106 78.624 49.9179 78.8589 50.2342 79.0815C50.3904 79.1911 50.5491 79.2969 50.7073 79.4041C50.8457 79.4978 50.9871 79.5901 51.129 79.68C51.3781 79.8333 51.6273 79.9865 51.8784 80.136C51.9603 80.1849 52.0422 80.2337 52.1246 80.2821C52.2026 80.3276 52.2875 80.3707 52.3528 80.4328C52.3746 80.4535 52.3908 80.4785 52.4016 80.5048C52.7 80.0973 53.0058 79.6942 53.3186 79.2964C53.7623 78.7315 54.2104 78.1695 54.6719 77.6181C54.9193 77.3224 55.1757 77.034 55.434 76.7475C55.6777 76.4781 55.9223 76.2097 56.1739 75.948C56.6917 75.4099 57.2352 74.8987 57.8119 74.4184C58.1017 74.177 58.4044 73.9496 58.711 73.727C59.0171 73.5064 59.3267 73.29 59.6431 73.0827C60.05 72.816 60.4648 72.5594 60.8845 72.3118C61.9251 71.697 63.1246 71.1311 64.3093 70.7466C68.7588 69.3053 70.8285 69.4207 74.7311 71.6208M92.8383 62.6104C92.8191 62.7936 92.7979 62.9769 92.7762 63.1601C92.7402 63.4253 92.7032 63.6906 92.6538 63.9543C92.6048 64.2189 92.5454 64.4816 92.478 64.7428C92.371 65.1331 92.256 65.5224 92.1225 65.9053C91.9845 66.3016 91.8354 66.6945 91.6755 67.0839C91.3664 67.8227 91.035 68.5566 90.6384 69.257C90.4674 69.5456 90.292 69.8313 90.1046 70.1102C89.9158 70.3905 89.7175 70.6631 89.5128 70.9328C89.5138 70.9314 89.5148 70.9304 89.5158 70.929C89.5148 70.9304 89.5133 70.9314 89.5128 70.9328C89.5072 70.9399 89.5016 70.9471 89.4961 70.9546C89.5006 70.948 89.5057 70.9418 89.5102 70.9357C89.2308 71.2922 88.9454 71.6439 88.6446 71.984C88.5588 72.0803 88.4736 72.1761 88.3873 72.2719C88.2729 71.9649 88.1585 71.658 88.0447 71.351C88.1282 71.2824 88.2087 71.2109 88.2883 71.1379C88.5179 70.9276 88.7377 70.7068 88.9446 70.4753C88.9461 70.4744 88.9476 70.4729 88.9491 70.471C88.9496 70.471 88.9496 70.4706 88.9496 70.4706C88.9511 70.4687 88.9526 70.4658 88.9551 70.4639C88.9597 70.4587 88.9642 70.4544 88.9683 70.4497C88.9693 70.4487 88.9703 70.4473 88.9708 70.4464L88.9693 70.4478C89.3836 69.9801 89.7692 69.4859 90.1185 68.9723C90.1109 68.9822 90.1038 68.9932 90.0967 69.0036C90.3058 68.6972 90.4941 68.3777 90.6793 68.0577C90.8514 67.7586 91.0165 67.4566 91.1747 67.1513C91.4732 66.5738 91.7315 65.9783 91.9728 65.3775C92.2254 64.7476 92.4452 64.1069 92.6246 63.4536C92.7017 63.1738 92.7712 62.8921 92.8383 62.6104ZM81.6898 38.9335C81.7412 38.996 81.793 39.0585 81.8448 39.1205C82.1844 39.5261 82.5365 39.9209 82.8917 40.3147C83.233 40.6931 83.5743 41.0725 83.9484 41.422C84.3511 41.7985 84.774 42.1518 85.2086 42.4946C85.6287 42.8259 86.0605 43.1429 86.4796 43.4752C86.9101 43.817 87.3321 44.166 87.7364 44.5358C87.727 44.5271 87.7181 44.5185 87.7087 44.5098C87.9329 44.7164 88.155 44.9248 88.3671 45.1418C88.5594 45.3386 88.7386 45.5458 88.9153 45.7549C89.0728 45.9447 89.2277 46.136 89.373 46.3343C89.5154 46.5293 89.6458 46.7313 89.7751 46.9343C89.7737 46.9324 89.7727 46.9304 89.7712 46.9285C89.9217 47.167 90.0671 47.4083 90.2071 47.6529C90.3063 47.8256 90.3969 48.003 90.4831 48.1818C90.1028 47.6966 89.709 47.2208 89.2991 46.7583C89.0744 46.5054 88.8462 46.2544 88.6134 46.0081C88.3905 45.7724 88.1636 45.5414 87.9216 45.3237C87.4103 44.8652 86.8642 44.4494 86.2893 44.0673C86.005 43.878 85.7107 43.7014 85.4159 43.5263C85.3732 43.5011 85.3305 43.476 85.2878 43.4503C85.1555 43.3419 85.0238 43.233 84.891 43.125L84.8925 43.1264C84.7603 43.017 84.6301 42.9062 84.5019 42.793C84.3915 42.6952 84.2806 42.5955 84.1798 42.4887C84.1803 42.4892 84.1808 42.4897 84.1813 42.4897C84.163 42.4709 84.1447 42.4522 84.1269 42.4329C84.1353 42.4421 84.1442 42.4517 84.1536 42.4613C83.9203 42.2145 83.7012 41.9536 83.5016 41.6813C83.3243 41.4354 83.1605 41.1816 83.0037 40.9234C82.8386 40.6509 82.6664 40.3836 82.4832 40.1225C82.2527 39.7936 82.0308 39.4595 81.8128 39.1231C81.7715 39.0602 81.7307 38.9969 81.6898 38.9335ZM32.426 53.7919C32.4688 53.1843 32.491 52.5761 32.5173 51.9674C32.5443 51.3377 32.5763 50.7086 32.6496 50.0821C32.7136 49.6041 32.794 49.1276 32.8774 48.6521C32.9613 48.1747 33.0627 47.7017 33.186 47.2323C33.3538 46.65 33.5524 46.0775 33.7839 45.5152C34.1407 44.688 34.5418 43.8796 34.9911 43.0941C35.3513 42.4865 35.7294 41.8848 36.1611 41.3203C36.1601 41.3222 36.1586 41.3241 36.1571 41.326C36.1591 41.3231 36.1611 41.3203 36.1631 41.3179C36.1692 41.3103 36.1747 41.3027 36.1808 41.2956C36.1758 41.3018 36.1707 41.3089 36.1656 41.3151C36.2 41.2719 36.2383 41.2287 36.2682 41.1817C36.2738 41.1745 36.2794 41.1679 36.2844 41.1608C36.4213 40.988 36.5598 40.8162 36.7016 40.6472C36.7637 40.5823 36.8257 40.5183 36.8882 40.4538C37.0424 40.3007 37.2035 40.1553 37.3701 40.0152C37.0787 40.3679 36.8032 40.7335 36.5395 41.1059C36.1545 41.6502 35.7743 42.1975 35.4588 42.7815C35.3008 43.0735 35.1552 43.3685 35.02 43.6703C34.8843 43.9734 34.7551 44.28 34.6299 44.5871C34.1427 45.7849 33.773 47.0237 33.5024 48.282C33.3666 48.9108 33.2632 49.5457 33.1539 50.179C33.044 50.8167 32.9271 51.4533 32.7967 52.0875C32.7998 52.0751 32.802 52.0622 32.8046 52.0498C32.6842 52.6315 32.5633 53.2137 32.426 53.7919ZM32.1448 72.0262C31.9487 71.7038 31.7566 71.3795 31.5675 71.0534C31.291 70.5766 31.0165 70.0988 30.7806 69.6023C30.6956 69.4125 30.6156 69.2219 30.5425 69.0274C30.4744 68.844 30.4168 68.6573 30.3597 68.4706C30.2911 68.2304 30.228 67.9892 30.1699 67.7462C30.1219 67.5405 30.0855 67.3329 30.0505 67.1254C29.9783 66.5876 29.954 66.0463 29.9422 65.5042C29.942 65.4226 29.9417 65.3409 29.942 65.2597C29.9556 65.4561 29.9722 65.652 29.9928 65.848C30.0596 66.4879 30.2003 67.1179 30.3636 67.7414C30.5206 68.3439 30.6956 68.9407 30.9272 69.5208C31.1729 70.1373 31.4477 70.742 31.762 71.3294C31.8866 71.5629 32.0147 71.7951 32.1448 72.0262ZM38.0092 102.629C37.8884 102.475 37.7706 102.319 37.6578 102.16C37.543 101.997 37.4383 101.828 37.3351 101.659C37.1307 101.315 36.9409 100.963 36.7611 100.607C36.5803 100.248 36.4196 99.8796 36.2609 99.5112L36.2711 99.5352C36.2194 99.4125 36.1676 99.2894 36.1179 99.1658C35.8049 98.3864 35.5349 97.5926 35.2984 96.7895C35.2314 96.4442 35.1783 96.0971 35.1357 95.7476C35.087 95.3509 35.0344 94.9551 34.9983 94.5575C34.9834 94.3348 34.9776 94.1118 34.9772 93.8883C35.0254 94.0715 35.076 94.2543 35.1287 94.4367C35.1993 94.6813 35.2753 94.9263 35.3654 95.1653C35.4643 95.5228 35.5712 95.8789 35.6851 96.2327C35.8849 96.8498 36.1578 97.4397 36.4262 98.0316C36.6839 98.597 36.9702 99.1503 37.2654 99.6984C37.5583 100.242 37.8857 100.77 38.2317 101.284C38.2917 101.373 38.3533 101.461 38.4159 101.548C38.3662 101.678 38.3165 101.809 38.2674 101.94C38.1813 102.17 38.0953 102.4 38.0092 102.629ZM36.9675 105.551C36.9226 105.649 36.9195 105.763 36.9655 105.861C37.0105 105.958 37.0854 106.016 37.1722 106.07C37.2049 106.092 37.2352 106.116 37.2669 106.139C37.3729 106.218 37.4868 106.265 37.623 106.272L37.642 106.272C38.1851 106.276 38.2195 105.598 38.3578 105.39C38.4494 105.251 38.5302 105.106 38.6104 104.961C38.7978 104.626 38.9807 104.29 39.1652 103.954C39.6981 102.981 40.2221 102.003 40.749 101.027C41.2811 100.041 41.8459 99.0727 42.4152 98.1067C42.7019 97.6212 42.9945 97.1383 43.2956 96.6606C43.6038 96.1701 43.9234 95.6859 44.234 95.1964C44.564 94.6755 44.887 94.1517 45.201 93.6221C45.4902 93.1338 45.7724 92.6431 46.0611 92.1549C46.3483 91.6695 46.635 91.1836 46.9321 90.703C47.2276 90.2258 47.5346 89.7549 47.8461 89.2864C48.4665 88.3551 49.0943 87.4281 49.7241 86.5026C49.7125 86.5202 49.6998 86.5378 49.6882 86.5549C50.0157 86.0774 50.3472 85.6019 50.6852 85.1289C51.0327 84.6434 51.3853 84.1609 51.7398 83.6798C52.0554 83.2486 52.3695 82.8169 52.6906 82.3895C53.0359 81.9313 53.3847 81.476 53.7463 81.0294C54.1019 80.5913 54.4704 80.1624 54.8459 79.7397C55.3878 79.135 55.9415 78.5389 56.5077 77.9548C57.089 77.3556 57.6787 76.7631 58.3099 76.2121C58.5731 75.9853 58.8359 75.7586 59.11 75.5438C59.377 75.3348 59.6549 75.1411 59.9373 74.9517C60.6586 74.4806 61.4025 74.045 62.1765 73.6569C62.7813 73.364 63.3992 73.106 64.0378 72.8888C65.9085 72.2793 68.8212 72.3358 70.7399 72.6197C73.8572 73.1477 76.6624 74.318 79.336 75.8904C79.3321 75.888 79.3286 75.8856 79.3246 75.8831C81.479 77.1521 83.1461 78.5764 84.9894 80.2757C85.6064 80.8444 86.2149 81.4202 86.8229 81.9974C87.0663 82.2285 87.3097 82.4591 87.5531 82.6897C87.6105 82.7488 87.6673 82.808 87.7246 82.8667C88.1315 83.2867 88.5388 83.7062 88.9627 84.1106C89.1665 84.3046 89.3759 84.4929 89.5782 84.6879C89.686 84.7918 89.7924 84.8958 89.8977 85.0021C89.9456 85.0503 89.9936 85.0993 90.0405 85.1479C90.0702 85.1787 90.0993 85.2114 90.13 85.2427C90.1611 85.2768 90.1942 85.3095 90.2269 85.3432C90.8377 85.9897 91.4314 86.6508 92.0251 87.312C92.3872 87.7149 92.7462 88.1212 93.0957 88.5341C93.4471 88.9498 93.773 89.3831 94.0958 89.8186C94.3841 90.2077 94.6744 90.5938 94.9939 90.9587C95.1712 91.1621 95.3504 91.3645 95.5207 91.573C95.6046 91.6763 95.6839 91.782 95.7738 91.8801C95.8069 91.9167 95.841 91.9508 95.8762 91.9845C95.9816 92.1338 96.086 92.2836 96.1893 92.4344C96.1982 92.4464 96.2076 92.4584 96.217 92.4699C96.2174 92.4804 96.2178 92.4909 96.2187 92.501C96.237 92.5169 96.2533 92.5327 96.2696 92.5477C96.2983 92.5756 96.327 92.6026 96.3557 92.6305C96.3979 92.6518 96.4407 92.6727 96.4839 92.695C96.5028 92.7042 96.5226 92.7144 96.5415 92.7245C96.565 92.7171 96.5896 92.7087 96.6131 92.7002C96.6437 92.689 96.6742 92.6787 96.7048 92.6675C96.7318 92.6582 96.7569 92.6488 96.7834 92.6442C96.7864 92.6428 96.7894 92.6409 96.7924 92.6395C96.804 92.6315 96.8145 92.6244 96.8251 92.6168C96.8427 92.6046 96.8597 92.5932 96.8773 92.5814C96.893 92.5615 96.9086 92.5415 96.9248 92.5221C96.946 92.4955 96.9678 92.468 96.9885 92.4419C97.0153 92.4077 97.0425 92.3745 97.0698 92.3412L97.0991 92.3052C97.1178 92.2814 97.137 92.2577 97.1562 92.2344L97.1607 92.2287L97.1622 92.2264L97.1637 92.225L97.1653 92.2231L97.1668 92.2212L97.1683 92.2193L97.1698 92.2174L97.1981 92.1837C97.2026 92.177 97.2077 92.1704 97.2123 92.1637L97.2128 92.1628L97.2133 92.1623L97.2138 92.1618L97.2143 92.1609L97.2148 92.1604L97.2153 92.1594L97.2198 92.1533L97.2204 92.1528L97.2204 92.1518L97.2295 92.1371L97.23 92.1366L97.23 92.1362L97.2315 92.1328L97.232 92.1328L97.2325 92.1319L97.233 92.1309L97.2335 92.13L97.2335 92.1295L97.2341 92.1295C97.2548 92.0948 97.2756 92.0601 97.2964 92.0259L97.2985 92.0225L97.2995 92.0216L97.3005 92.0192L97.3025 92.0164L97.303 92.0159L97.3046 92.0126L97.3051 92.0116L97.3066 92.0092L97.3081 92.0069L97.3086 92.0064L97.3106 92.003L97.3111 92.0021C97.3355 91.9631 97.3593 91.9246 97.3841 91.8866L97.3841 91.8856C97.3988 91.8633 97.413 91.8405 97.4277 91.8182C97.4247 91.8229 97.4216 91.8282 97.4186 91.8319C97.5144 91.6832 97.6116 91.5354 97.7113 91.3896C97.754 91.3159 97.7966 91.2427 97.8402 91.1699C97.7575 90.9988 97.6367 90.8398 97.5309 90.6843C97.3167 90.3699 97.088 90.0644 96.8553 89.7627C96.7271 89.5975 96.5943 89.4365 96.449 89.2854C96.411 89.246 96.3684 89.2031 96.3219 89.1622C96.0919 88.8892 95.8599 88.6171 95.6288 88.3451C95.1263 87.7529 94.6424 87.1471 94.1243 86.5672C94.1371 86.5816 94.1505 86.596 94.1633 86.6109C93.6931 86.084 93.2053 85.5702 92.7054 85.0688L92.657 85.0207C92.6401 84.9614 92.6227 84.9025 92.6038 84.8436C92.5417 84.6497 92.4777 84.4568 92.4171 84.2629C92.2946 83.8661 92.1656 83.4721 92.0446 83.0753C91.8098 82.3075 91.578 81.5388 91.3187 80.778C91.055 80.0033 90.7969 79.2272 90.5482 78.4474C90.2967 77.658 90.0126 76.8788 89.7481 76.0927C89.4728 75.2764 89.1966 74.4605 88.8988 73.6512L88.8214 73.4419C88.9271 73.3462 89.0245 73.2409 89.1188 73.1352C89.1234 73.1314 89.1279 73.1271 89.1324 73.1229C89.2201 73.0352 89.3059 72.9451 89.3881 72.8526C89.5728 72.6434 89.752 72.4308 89.9174 72.2076C90.0383 72.0447 90.1537 71.8789 90.2656 71.7112C90.3242 71.6391 90.3833 71.5664 90.4414 71.4938C90.6172 71.2745 90.7791 71.0489 90.9281 70.8127C91.0654 70.5941 91.1904 70.3672 91.3099 70.1389C91.4289 69.912 91.5454 69.6827 91.6529 69.4505C91.6478 69.4614 91.6432 69.4719 91.6381 69.4824C91.7451 69.2544 91.8506 69.026 91.9502 68.7952C91.991 68.7004 92.0304 68.6057 92.0692 68.5105C92.087 68.4743 92.1048 68.4386 92.1227 68.4025C92.3833 67.8758 92.5747 67.3209 92.7543 66.7654C92.9338 66.2085 93.1039 65.6478 93.2251 65.077C93.2873 64.7867 93.3555 64.4978 93.4072 64.2055C93.433 64.0595 93.4579 63.9136 93.4752 63.7666C93.491 63.6311 93.4973 63.4946 93.5016 63.358C93.5092 63.0878 93.5217 62.8171 93.5233 62.5459C93.5252 62.2469 93.523 61.9475 93.5214 61.6485C93.52 61.3768 93.5201 61.1055 93.5152 60.8343C93.5306 60.4218 93.5321 60.0092 93.5255 59.5965C93.5215 59.3415 93.5109 59.0873 93.4899 58.8326C93.4705 58.6123 93.4401 58.3929 93.4073 58.1744C93.4144 57.9572 93.4179 57.7404 93.415 57.5231C93.4097 57.1854 93.386 56.8481 93.3608 56.5117C93.335 56.1782 93.3007 55.8455 93.262 55.5133C93.1867 54.8723 93.0815 54.233 92.9472 53.6007C92.8799 53.2821 92.8071 52.9645 92.7182 52.6501C92.6255 52.3232 92.5273 51.9972 92.42 51.6741C92.2516 51.168 92.0557 50.6722 91.8111 50.1971C91.7948 50.1297 91.777 50.0612 91.7582 49.9942C91.6829 49.7176 91.5987 49.4448 91.5024 49.1742C91.3235 48.6715 91.1031 48.1789 90.8605 47.7014C90.617 47.222 90.3379 46.7566 90.0417 46.3055C89.8966 46.0833 89.7444 45.8658 89.5792 45.6563C89.4051 45.4353 89.2224 45.2214 89.0347 45.0108C88.6787 44.6098 88.2833 44.2391 87.886 43.8755C87.887 43.8765 87.888 43.877 87.8884 43.8779C87.887 43.8765 87.8855 43.8746 87.884 43.8731C87.8815 43.8717 87.8795 43.8697 87.8776 43.8678C87.879 43.8693 87.8805 43.8702 87.882 43.8717C87.5994 43.614 87.3058 43.3697 87.007 43.1296C86.5884 42.795 86.1557 42.4751 85.7335 42.1433C85.3139 41.8125 84.8998 41.477 84.5023 41.1211C84.3039 40.9395 84.109 40.7542 83.9247 40.5589C83.7512 40.3747 83.5863 40.1824 83.4174 39.9944C83.0632 39.5996 82.7086 39.2068 82.367 38.8021C82.3561 38.7886 82.3453 38.7757 82.3344 38.7627C81.9889 38.3503 81.661 37.9247 81.314 37.5138C80.9739 37.1105 80.6198 36.7148 80.2415 36.3432C80.0313 36.1358 79.8156 35.9341 79.5948 35.7376C79.3884 35.5531 79.182 35.3681 78.9686 35.1908C78.5436 34.8399 78.094 34.5146 77.6195 34.2264C77.5406 34.178 77.4607 34.1306 77.3802 34.0837C76.8437 33.6608 76.2884 33.2612 75.719 32.8777C75.3569 32.6337 74.9883 32.3965 74.6004 32.1915C74.2 31.9812 73.788 31.7952 73.3724 31.6134C72.9648 31.4355 72.5526 31.2653 72.1383 31.0997C71.7495 30.9444 71.3576 30.792 70.9615 30.6529C70.5476 30.5079 70.1275 30.382 69.7048 30.2623C69.2772 30.141 68.8485 30.0256 68.4178 29.9153C67.5817 29.7017 66.7349 29.5129 65.88 29.3793C65.4559 29.3131 65.0281 29.2606 64.5996 29.2235C64.1393 29.1837 63.6787 29.163 63.2161 29.1509C62.3362 29.128 61.4538 29.1657 60.5766 29.2345C60.145 29.2689 59.7147 29.3153 59.285 29.3646C58.8537 29.4134 58.4229 29.4698 57.9935 29.5334C57.1372 29.6611 56.2813 29.7954 55.4221 29.9069C54.5635 30.0193 53.702 30.1073 52.8438 30.2206C52.415 30.2775 51.9856 30.3402 51.5586 30.411C51.1157 30.4845 50.6746 30.5661 50.233 30.6473C49.817 30.7234 49.3955 30.7966 48.9886 30.911C48.5616 31.031 48.1459 31.1816 47.7438 31.3638C47.5583 31.4474 47.3776 31.5454 47.2029 31.6477C47.0092 31.7608 46.8179 31.8773 46.63 31.9986C46.2639 32.2366 45.9273 32.5095 45.6061 32.7998C45.2898 33.0849 44.9929 33.3874 44.7262 33.7158C44.4454 34.0618 44.1675 34.4093 43.9298 34.7838C43.8153 34.9634 43.7172 35.1527 43.6195 35.3411C43.5275 35.5181 43.4399 35.7003 43.3682 35.8855C43.3263 35.9941 43.2863 36.1036 43.2523 36.2151C43.2113 36.2148 43.1709 36.2155 43.1314 36.2185C42.9162 36.2317 42.7056 36.2726 42.4979 36.3259C42.4739 36.3324 42.4499 36.3384 42.4259 36.3449C42.2165 36.372 42.0089 36.4115 41.8028 36.4558C41.5267 36.5158 41.25 36.5824 40.9831 36.6745C40.6881 36.7773 40.4004 36.8983 40.1215 37.0371C39.8106 37.1918 39.5094 37.3667 39.2191 37.5551C38.9433 37.7335 38.6819 37.9278 38.4254 38.1302C37.6352 38.7536 36.9147 39.4583 36.2684 40.2189C36.2185 40.272 36.1681 40.3256 36.1167 40.3782C35.9659 40.5351 35.8171 40.6945 35.6743 40.8591C35.4855 41.0764 35.2953 41.2941 35.1149 41.5177C34.929 41.7469 34.7516 41.9839 34.5816 42.2238C34.406 42.4722 34.2368 42.7254 34.0697 42.9797C33.9132 43.2173 33.7517 43.4524 33.6076 43.6973C33.4472 43.9687 33.3167 44.2528 33.1917 44.5408C33.0692 44.8231 32.9348 45.1 32.8053 45.3798C32.6774 45.6558 32.5544 45.9338 32.434 46.2127C32.3063 46.5088 32.1757 46.8039 32.0546 47.1029C31.963 47.3314 31.8805 47.5609 31.8183 47.7973C31.7525 48.0461 31.6952 48.2969 31.6399 48.5477C31.5058 49.1589 31.3901 49.774 31.3278 50.3968C31.2692 50.9871 31.286 51.5803 31.2824 52.1725C31.2811 52.4662 31.2868 52.7585 31.3004 53.0523C31.3136 53.3465 31.3218 53.6403 31.3365 53.9351C31.3515 54.2394 31.3711 54.5442 31.3841 54.8495C31.3964 55.1356 31.4186 55.4218 31.4289 55.708C31.4307 56.0399 31.3946 56.372 31.3565 56.7017L31.3409 56.8205C31.2868 57.0455 31.2293 57.2704 31.1692 57.4944C31.1723 57.482 31.1759 57.4701 31.179 57.4577C31.028 58.0072 30.8556 58.5513 30.6658 59.0895C30.4672 59.652 30.2612 60.2106 30.0806 60.778C29.9792 61.0972 29.8908 61.4207 29.8043 61.7443C29.72 62.0584 29.6451 62.3745 29.5816 62.693C29.5182 63.0149 29.4682 63.3387 29.4256 63.6636C29.3858 63.9694 29.3544 64.2772 29.3409 64.5851C29.3133 65.2373 29.3255 65.8897 29.3697 66.5405C29.414 67.1822 29.5327 67.8182 29.712 68.4375C29.7971 68.7338 29.8876 69.0272 29.9957 69.3165C30.1023 69.6019 30.2314 69.8804 30.3691 70.1531C30.5106 70.435 30.6662 70.7113 30.8239 70.9856C30.981 71.2585 31.1391 71.531 31.2993 71.802C31.6294 72.3585 31.9756 72.9051 32.3233 73.4507C32.9651 74.4694 33.5922 75.5019 34.1075 76.5851C34.4247 77.29 34.7039 78.0075 34.93 78.7441C34.9266 78.7317 34.9227 78.7193 34.9194 78.7063C34.9909 78.9523 35.0624 79.1983 35.122 79.4476C35.1796 79.6873 35.2287 79.9274 35.2693 80.1703C35.3016 80.4514 35.3283 80.7328 35.3506 81.0152C35.3492 81.0023 35.3484 80.989 35.3475 80.9761C35.3949 81.7042 35.3975 82.433 35.3661 83.161L35.3609 83.2283C35.3244 83.6593 35.2838 84.0892 35.2328 84.5182C35.1667 85.0134 35.0816 85.5065 34.9995 85.9997C34.9805 86.1151 34.9619 86.2305 34.9433 86.3464C34.881 86.5499 34.8211 86.7548 34.7648 86.9602C34.6277 87.4596 34.5121 87.9654 34.4198 88.4748C34.3266 88.9836 34.2414 89.4944 34.1741 90.0073C34.1042 90.533 34.0413 91.0598 34.0122 91.5896C33.9828 92.1099 33.9774 92.6304 34.0103 93.1512C34.025 93.3882 34.0462 93.6243 34.073 93.8594C34.0706 94.1598 34.0792 94.4588 34.1018 94.7589C34.1326 95.1474 34.1823 95.535 34.2295 95.9217C34.2786 96.3218 34.3467 96.7182 34.4288 97.1133C34.5133 97.5175 34.6038 97.9203 34.7123 98.3194C34.9201 99.0841 35.2246 99.8238 35.5541 100.547C35.8856 101.272 36.2422 101.992 36.6966 102.657C36.9176 102.98 37.1603 103.286 37.4251 103.578C37.4775 103.636 37.5298 103.695 37.5827 103.753C37.5478 103.849 37.513 103.944 37.4776 104.04C37.3946 104.267 37.3041 104.492 37.2255 104.721C37.2229 104.728 37.2204 104.735 37.2183 104.742C37.2183 104.742 37.2188 104.741 37.2188 104.74C37.1773 104.859 37.1312 104.974 37.0867 105.092C37.0339 105.232 36.9717 105.37 36.9663 105.521C36.9662 105.531 36.9666 105.541 36.9675 105.551ZM60.2336 69.5356C60.2878 69.4988 60.3416 69.4624 60.3968 69.4275C60.3953 69.4251 60.3934 69.4232 60.3914 69.4213C60.3391 69.4596 60.2873 69.4974 60.2336 69.5356ZM53.3086 75.2175C53.1655 75.2012 53.0326 75.161 52.9008 75.107C52.6621 75.0101 52.4473 74.8681 52.2628 74.6953C52.0872 74.5301 51.976 74.3029 51.8998 74.0822C51.8264 73.871 51.8131 73.6407 51.8467 73.4208C51.8165 73.392 51.7903 73.3583 51.7672 73.3247C51.7052 73.2307 51.6513 73.129 51.5998 73.0293C51.5444 72.9229 51.4996 72.8112 51.4562 72.6992C51.4128 72.5895 51.3694 72.4788 51.3296 72.3677C51.244 72.1264 51.172 71.8766 51.1485 71.6218C51.1255 71.3671 51.1619 71.1071 51.2207 70.8583C51.2763 70.6247 51.3739 70.39 51.5151 70.1915C51.6618 69.9853 51.8531 69.8201 52.0744 69.689C52.2617 69.5782 52.4685 69.5068 52.6846 69.4664C52.8936 69.4278 53.1062 69.4299 53.3147 69.3938C53.3167 69.3933 53.3192 69.3929 53.3217 69.3924C53.339 69.3615 53.3548 69.3296 53.3721 69.2987C53.4036 69.2402 53.4385 69.1832 53.4745 69.1276C53.545 69.0178 53.6253 68.9157 53.7116 68.817C53.9014 68.5988 54.1391 68.4282 54.3931 68.2826C54.4854 68.2308 54.5876 68.1933 54.6858 68.1535C54.744 68.13 54.8036 68.1076 54.8622 68.0851C54.993 68.0345 55.1257 67.9873 55.2594 67.9444C55.5127 67.8651 55.7725 67.7988 56.0397 67.7798C56.3149 67.7599 56.5888 67.7754 56.8626 67.809C57.1338 67.8421 57.4009 67.8895 57.6648 67.9579C58.1638 68.0868 58.6458 68.269 59.1309 68.437C59.6987 68.6055 59.5806 68.5881 59.923 68.6581C60.347 68.8029 60.6804 68.4271 60.9985 68.2877C60.9165 68.4618 60.4975 69.2898 60.4144 69.4635C60.3891 69.501 60.3643 69.5395 60.34 69.5775C60.3289 69.5918 60.3187 69.6065 60.3076 69.6203C60.2591 69.6877 60.2095 69.7547 60.1604 69.8211C59.9617 70.0914 59.7664 70.364 59.5771 70.6405C59.4784 70.7844 59.3796 70.9279 59.2799 71.0709C59.2258 71.1479 59.1716 71.2253 59.119 71.3032C58.9717 71.463 58.8289 71.6267 58.6806 71.7856C58.5021 71.9767 58.3191 72.1639 58.1405 72.355C57.9655 72.5413 57.8029 72.7369 57.6354 72.929C57.4693 73.1188 57.2904 73.2965 57.1081 73.4713C56.9287 73.6443 56.7523 73.8215 56.5546 73.9757C56.3499 74.1365 56.1339 74.2858 55.9173 74.4317C55.7129 74.5696 55.502 74.6979 55.2749 74.7998C55.0092 74.9186 54.7425 75.0388 54.4592 75.1145C54.4712 75.1117 54.4827 75.108 54.4942 75.1052C54.3641 75.1396 54.2335 75.1735 54.1005 75.1949C53.9635 75.2168 53.8272 75.2277 53.6883 75.2324C53.6514 75.2335 53.6149 75.2342 53.578 75.2339C53.4877 75.2332 53.3983 75.2282 53.3086 75.2175ZM51.5132 65.1557C51.4741 65.1148 51.4422 65.0663 51.4297 65.0113C51.4103 64.6947 51.6209 64.5236 51.8485 64.3282C51.9562 64.2435 52.0791 64.1748 52.203 64.115C52.4312 64.0055 52.7437 63.8956 52.9918 63.8407C53.7304 63.8349 53.5485 63.8786 54.362 64.1906C54.0407 64.2279 53.6471 64.177 53.3762 64.2451C53.0161 64.3136 52.7231 64.4507 52.4315 64.6535C52.171 64.81 52.028 65.0536 51.7817 65.2083C51.7552 65.2224 51.7241 65.2284 51.6922 65.2282C51.6253 65.2277 51.5547 65.1989 51.5132 65.1557ZM50.2525 67.4283C50.2142 67.4213 50.1763 67.4139 50.1384 67.4083C50.1434 67.4089 50.1479 67.4098 50.1529 67.4104C50.1444 67.4089 50.1364 67.4079 50.1279 67.4064C50.125 67.4059 50.121 67.4053 50.1175 67.4053L50.1195 67.4053C49.7252 67.3474 49.3531 67.2052 48.9892 67.0548C48.7754 66.9668 48.5671 66.8682 48.3671 66.7535C48.1447 66.6262 47.9364 66.4819 47.7357 66.3256C47.3304 66.0097 46.9703 65.6111 46.7726 65.1435C46.5666 64.6568 46.5282 64.1216 46.5462 63.6017C46.5571 63.2942 46.5999 62.9894 46.6552 62.6866C46.6939 62.5574 46.7161 62.4239 46.7339 62.2903C46.7438 62.2441 46.7537 62.1988 46.7637 62.1525C46.8039 61.9623 46.8457 61.7721 46.8854 61.5813C46.8704 61.585 46.8549 61.5887 46.8404 61.5929C46.8649 61.4857 46.8903 61.3789 46.9163 61.2721C46.9475 61.1444 46.9797 61.0161 47.0073 60.8879C47.0115 60.8679 47.0162 60.8479 47.0204 60.8278C47.0229 60.8288 47.0254 60.8298 47.0279 60.8303C47.0347 60.7897 47.0421 60.7497 47.0495 60.7096C47.1265 60.2742 47.2035 59.8392 47.2741 59.4028C47.2803 59.0113 47.2801 58.6197 47.2838 58.2276C47.2849 58.1145 47.2845 58.0017 47.2825 57.89C47.2791 57.7753 47.2732 57.6616 47.2648 57.5479C47.257 57.4309 47.2506 57.3138 47.2337 57.1981C47.2333 57.1929 47.2323 57.1881 47.2314 57.1838C47.2314 57.1828 47.2314 57.1823 47.2309 57.1814L47.2314 57.1819C47.2235 57.1226 47.226 57.0696 47.2614 57.014C47.2615 57.0135 47.2615 57.013 47.262 57.013C47.2959 56.9574 47.3642 56.915 47.4332 56.9069C47.4388 56.8916 47.447 56.8769 47.4571 56.8636C47.5284 56.7682 47.6809 56.7402 47.7739 56.8259C47.8447 56.8914 47.8567 56.9894 47.8658 57.0816C47.8986 57.1516 47.9214 57.2248 47.9397 57.289C47.9764 57.4191 48.0031 57.5492 48.0264 57.6707L48.0283 57.6831C48.0854 57.9773 48.1251 58.2608 48.154 58.4759C48.182 58.6876 48.1974 58.9041 48.2123 59.1134L48.2181 59.1874L48.2229 59.2596C48.2573 59.7355 48.2931 60.2272 48.2839 60.7113C48.2757 61.1062 48.2395 61.4985 48.204 61.8664L48.193 61.9724C48.161 62.2988 48.1278 62.6371 48.1022 62.9698L48.1017 62.9616C48.0994 62.9984 48.0965 63.0347 48.0947 63.0714C48.085 63.248 48.0778 63.4323 48.085 63.6158C48.0977 63.8031 48.1166 63.968 48.1431 64.1205C48.1693 64.2477 48.203 64.3769 48.2466 64.5167C48.3093 64.6963 48.384 64.8769 48.4755 65.0691C48.5612 65.2392 48.6383 65.375 48.717 65.4969C48.782 65.5876 48.8575 65.6823 48.9469 65.7847C49.0936 65.9443 49.2346 66.082 49.3787 66.2053C49.497 66.3018 49.6249 66.3958 49.7589 66.4843C49.8477 66.5399 49.939 66.5921 50.0304 66.6453C50.1322 66.7034 50.2369 66.7634 50.3371 66.8282C50.3729 66.8504 50.4096 66.8732 50.4443 66.8983C50.483 66.9267 50.5115 66.9656 50.5276 67.0087C50.5754 67.0683 50.5967 67.1473 50.5799 67.224C50.5523 67.3504 50.4327 67.434 50.3039 67.433C50.2864 67.4329 50.2695 67.4313 50.2525 67.4283Z" fill="#636363" style="fill:#636363;fill:color(display-p3 0.3875 0.3875 0.3875);fill-opacity:1;"/>
</g>
<path fill-rule="evenodd" clip-rule="evenodd" d="M36.8228 101.952C36.7292 101.931 36.6341 101.908 36.544 101.874C36.455 101.839 36.3686 101.797 36.2836 101.753C36.1182 101.668 35.9563 101.577 35.799 101.478C35.4844 101.282 35.1966 101.05 34.9154 100.811C34.6311 100.57 34.3616 100.31 34.101 100.045C33.836 99.7757 33.5836 99.4944 33.3453 99.2032C33.0759 98.875 32.8366 98.5222 32.6094 98.1661C32.3709 97.7918 32.1429 97.4099 31.934 97.0201L31.9595 97.0666C31.9516 97.0517 31.9438 97.0378 31.9369 97.0239C31.9158 96.9903 31.8977 96.9549 31.8795 96.9199C31.8756 96.9122 31.8717 96.9045 31.8678 96.8964L31.8589 96.8796C31.6903 96.5617 31.5366 96.2372 31.3865 95.9113C31.2329 95.5773 31.0904 95.2367 30.9694 94.8915C30.8445 94.5376 30.7386 94.1815 30.6617 93.8156C30.5887 93.4645 30.5411 93.1093 30.4971 92.7546C30.4071 92.0338 30.3701 91.3081 30.3671 90.5827C30.3641 89.9026 30.4105 89.2229 30.4629 88.5452L30.4489 88.5408L30.723 86.2941C30.7853 85.9359 30.8665 85.5803 30.9473 85.2256C31.015 84.9286 31.0912 84.6335 31.1699 84.339L31.7766 82.2314C31.977 81.5748 32.1804 80.9193 32.3669 80.2593C32.4981 79.7956 32.6174 79.3295 32.7157 78.8584C32.7126 78.8755 32.7089 78.8922 32.7058 78.9084C32.778 78.5556 32.8418 78.2022 32.8896 77.8454C32.9359 77.4971 32.9662 77.1473 32.99 76.7969C33.0313 76.079 32.9997 75.3615 32.9476 74.6452C32.949 74.662 32.9503 74.6796 32.9511 74.6973C32.9079 74.1029 32.8586 73.5094 32.7824 72.9186C32.7061 72.3325 32.5924 71.7514 32.4716 71.1722C32.3175 70.4766 32.1299 69.7899 31.9167 69.1083C31.8145 68.7808 31.7068 68.4534 31.5906 68.1301C31.5337 67.9721 31.4748 67.8155 31.4204 67.657C31.3767 67.5287 31.333 67.3971 31.3088 67.2641C31.2965 67.1967 31.3047 67.1261 31.3402 67.0657C31.394 66.9744 31.5089 66.9137 31.6195 66.9312C31.7267 66.9478 31.796 67.008 31.8436 67.0958C31.9775 67.3461 32.0778 67.6119 32.1821 67.8748C32.3156 68.2125 32.4397 68.554 32.5602 68.8963C32.7993 69.5753 33.0099 70.2651 33.1849 70.9617C33.3595 71.6565 33.5005 72.361 33.6026 73.0695C33.7042 73.7794 33.7662 74.4943 33.8053 75.21C33.8245 75.5564 33.8342 75.9032 33.8338 76.2503C33.8335 76.6037 33.8041 76.9579 33.7748 77.3101C33.7144 78.0379 33.5858 78.759 33.4212 79.4712C33.2697 80.1267 33.0764 80.7737 32.8815 81.4184L31.9956 84.4355C31.8507 84.975 31.7167 85.5175 31.6027 86.0644C31.5561 86.2975 31.5159 86.5308 31.4802 86.765C31.4866 86.7707 31.4926 86.776 31.4985 86.7809L31.2401 89.1705C31.2412 89.1581 31.2424 89.1452 31.243 89.1328C31.2147 89.58 31.192 90.0273 31.1897 90.4757C31.1874 90.9294 31.2035 91.3818 31.2327 91.8342C31.2815 92.4707 31.3533 93.1078 31.4821 93.7344C31.553 94.0492 31.6479 94.356 31.7548 94.661C31.9933 95.3023 32.2748 95.9334 32.5995 96.539C32.5906 96.5236 32.5828 96.5083 32.5745 96.493C32.5828 96.5083 32.5906 96.5236 32.5985 96.5385C32.6201 96.5731 32.6382 96.609 32.6564 96.6445L32.6613 96.6546C32.6652 96.6613 32.6686 96.6689 32.6725 96.6761C32.9915 97.2521 33.3341 97.8149 33.7148 98.3555C34.0627 98.8304 34.4593 99.2718 34.8655 99.7019C34.8542 99.6898 34.8423 99.6778 34.8309 99.6653C35.1043 99.9463 35.3873 100.218 35.6893 100.471C35.8979 100.638 36.1156 100.791 36.3418 100.936C36.4525 101.004 36.5652 101.071 36.6804 101.131C36.8289 101.209 36.9684 101.296 37.1073 101.389C37.2298 101.471 37.2716 101.634 37.2165 101.764C37.1629 101.888 37.0359 101.963 36.9016 101.962C36.8752 101.962 36.8492 101.959 36.8228 101.952ZM92.1033 71.8701C92.5119 71.251 92.8755 70.6317 93.1818 70.0119C93.4295 69.4547 93.5953 68.941 93.7993 68.0808L94.1113 66.6558L94.2268 65.0207C94.285 63.9447 94.2902 62.7596 94.2151 61.6855C94.2165 61.7032 94.2178 61.7199 94.2186 61.7376C94.1659 61.0428 94.1006 60.3489 94.0018 59.6591C93.9007 58.9544 93.7811 58.2539 93.64 57.5556C93.621 57.4618 93.6014 57.3676 93.5813 57.2738C93.5847 57.2911 93.589 57.3083 93.5928 57.3255C93.5694 57.2203 93.5469 57.115 93.5244 57.0098C93.5283 57.0275 93.5321 57.0447 93.5359 57.0624C93.2307 55.668 92.8385 54.2949 92.3592 52.947C92.3339 52.8742 92.3066 52.8023 92.2804 52.7296C92.2862 52.7463 92.2926 52.7626 92.2984 52.7789C92.0541 52.1166 91.7908 51.4608 91.516 50.8097C91.2455 50.1701 90.9606 49.5333 90.6521 48.9096C90.609 48.8229 90.5648 48.7371 90.5197 48.6512C90.4761 48.5707 90.4319 48.4911 90.3857 48.4119C90.3632 48.3721 90.3406 48.3333 90.3185 48.2944C90.2905 48.246 90.2585 48.1984 90.2455 48.1453C90.1921 47.9334 90.3647 47.7427 90.5916 47.7626C90.7931 47.7799 90.928 47.98 91.0289 48.1269C91.1215 48.2613 91.2055 48.4024 91.284 48.5453C91.4537 48.857 91.616 49.1729 91.7707 49.4922C92.08 50.1306 92.3679 50.777 92.6347 51.4333C92.9025 52.092 93.1472 52.7605 93.3749 53.4327C93.6055 54.1097 93.8156 54.7933 93.9927 55.4852C94.3455 56.8613 94.6437 58.2518 94.828 59.6587C95.0132 61.0751 95.1243 62.5028 95.1137 63.9316C95.3774 67.0042 94.3589 69.8062 92.7328 72.3882C92.5981 72.5892 92.4554 72.7858 92.3098 72.9791C92.101 73.2564 91.8793 73.525 91.6433 73.7811C91.1873 74.2767 90.6843 74.727 90.1418 75.1355C89.9482 75.2811 89.7492 75.4195 89.5468 75.5536C89.4664 75.607 89.385 75.6584 89.3032 75.7089C89.1852 75.7811 89.0702 75.8547 88.9316 75.8847C88.8971 75.8921 88.8621 75.8956 88.8282 75.8954C88.6949 75.8943 88.5692 75.8356 88.4964 75.719C88.403 75.5702 88.4366 75.3972 88.5506 75.27C88.6439 75.1662 88.7714 75.1012 88.8909 75.0281C88.9702 74.9795 89.0485 74.9285 89.1264 74.8771C89.5238 74.6108 89.9035 74.3199 90.2638 74.0089C90.5609 73.7461 90.8411 73.4679 91.1064 73.1748C91.441 72.7939 91.7474 72.3927 92.0334 71.977L92.1033 71.8701Z" fill="#636363" style="fill:#636363;fill:color(display-p3 0.3875 0.3875 0.3875);fill-opacity:1;"/>
</g>
<path d="M120.823 78.3581L120.303 78.3597L123.711 50.3487L125.031 50.3445L133.497 76.1977L141.791 50.2911L143.111 50.2869L146.663 78.2757L143.343 78.2863L140.525 55.8951L133.343 78.3182L130.823 78.3262L123.446 56.2296L120.823 78.3581ZM151.14 78.2614L150.66 78.2629L162.549 50.2249L162.988 50.0235L173.14 78.1912L169.74 78.2021L166.598 69.4121L154.918 69.4493L151.14 78.2614ZM161.32 54.5488L155.077 69.0488L166.477 69.0124L161.32 54.5488ZM176.682 50.4998C179.774 50.2766 182.507 50.1612 184.881 50.1537C191.467 50.1327 194.766 52.3221 194.778 56.7221C194.782 58.5888 194.333 60.2569 193.43 61.7265C192.527 63.196 190.97 64.1743 188.758 64.6614L196.792 78.1158L193.072 78.1277L185.199 64.9127L180.039 64.9292L180.073 78.1691L176.753 78.1797L176.682 50.4998ZM184.882 50.5537C183.335 50.5586 181.709 50.6571 180.002 50.8492L180.038 64.5292L185.957 64.5103C189.717 64.3383 191.59 61.7723 191.578 56.8123C191.573 54.7857 191.009 53.2408 189.886 52.1777C188.763 51.088 187.095 50.5466 184.882 50.5537ZM216.624 50.0524L216.625 50.4524L204.025 50.4926L204.058 63.2926L215.738 63.2553L215.739 63.6553L204.059 63.6926L204.096 78.0925L200.776 78.1031L200.704 50.1032L216.624 50.0524ZM240.061 49.9777L240.581 49.976L240.622 65.976C240.633 70.1626 239.814 73.2453 238.166 75.2238C236.517 77.1758 234.36 78.156 231.693 78.1645C230.013 78.1699 228.586 78.0277 227.412 77.7382C226.238 77.4219 225.13 76.8521 224.088 76.0288C221.95 74.3822 220.875 71.0523 220.862 66.039L220.821 50.039L224.141 50.0285L224.182 65.9884C224.194 70.8417 224.936 74.0794 226.407 75.7014C227.156 76.499 227.93 77.0432 228.731 77.3339C229.559 77.6246 230.546 77.7682 231.692 77.7645C234.252 77.7563 236.29 76.8165 237.805 74.945C239.347 73.0467 240.112 70.0443 240.102 65.9376L240.061 49.9777ZM260.741 51.5917C258.312 50.6661 256.018 50.2068 253.858 50.2137C251.725 50.2205 250.059 50.6791 248.861 51.5896C247.664 52.5001 247.067 53.7554 247.071 55.3554C247.076 57.302 248.093 58.8054 250.123 59.8656C251.03 60.3161 252.018 60.7396 253.086 61.1362C254.18 61.506 255.275 61.9292 256.369 62.4057C257.464 62.8822 258.465 63.4257 259.373 64.0362C260.282 64.6466 261.017 65.4976 261.58 66.5891C262.143 67.654 262.426 69.0264 262.431 70.7064C262.435 72.3598 261.972 73.7746 261.041 74.9509C260.111 76.1272 258.98 76.9308 257.648 77.3617C256.342 77.7659 254.809 77.9708 253.049 77.9764C249.769 77.9869 246.967 77.1825 244.643 75.5632L244.842 75.2426C245.724 75.9331 246.859 76.5028 248.246 76.9517C249.661 77.3739 251.101 77.5826 252.568 77.5779C254.728 77.571 256.567 77.0718 258.084 76.0803C259.628 75.0621 260.398 73.5796 260.393 71.6329C260.387 69.4996 259.37 67.8362 257.34 66.6427C256.432 66.1122 255.431 65.6221 254.336 65.1722C253.268 64.7223 252.187 64.2591 251.093 63.7826C249.998 63.2794 248.997 62.7226 248.088 62.1121C246.058 60.7853 245.04 58.8952 245.034 56.4419C245.029 54.4952 245.678 52.9198 246.982 51.7156C248.285 50.4848 250.244 49.8652 252.857 49.8569C255.497 49.8485 258.178 50.2932 260.9 51.1912L260.741 51.5917ZM269.155 77.885L265.835 77.8956L265.763 49.8957L269.083 49.8851L269.116 62.7651L282.116 62.7236L282.083 49.8437L285.403 49.8331L285.475 77.833L282.155 77.8436L282.117 63.1236L269.117 63.1651L269.155 77.885ZM288.757 77.8225L288.277 77.824L300.165 49.786L300.605 49.5846L310.757 77.7524L307.357 77.7632L304.214 68.9732L292.534 69.0104L288.757 77.8225ZM298.936 54.1099L292.693 68.6099L304.093 68.5736L298.936 54.1099Z" fill="#636363" style="fill:#636363;fill:color(display-p3 0.3875 0.3875 0.3875);fill-opacity:1;"/>
<defs>
<clipPath id="clip0_60_500">
<rect width="115.992" height="118.684" fill="white" style="fill:white;fill-opacity:1;" transform="matrix(0.999971 0.00759495 -0.00953993 0.999954 1.61938 0)"/>
</clipPath>
</defs>
</svg>
